<svg width="19" height="19" viewBox="0 0 19 19" fill="none" xmlns="http://www.w3.org/2000/svg">
<g clip-path="url(#clip0_667_200)">
<path fill-rule="evenodd" clip-rule="evenodd" d="M9.20268 17.2634C5.00299 17.2634 1.53369 13.7941 1.53369 9.5944C1.53369 5.39472 4.9971 1.92542 9.19678 1.92542C13.3965 1.92542 16.8717 5.39472 16.8717 9.5944C16.8717 13.7941 13.4024 17.2634 9.20268 17.2634ZM8.26038 13.4465C8.47832 13.4465 8.6668 13.3464 8.80817 13.1285L12.7664 6.92613C12.8547 6.79655 12.9313 6.63751 12.9313 6.49615C12.9313 6.18397 12.6544 5.9896 12.3658 5.9896C12.195 5.9896 12.0242 6.08973 11.8946 6.28999L8.23093 12.1154L6.28129 9.67094C6.12815 9.47657 5.96911 9.40589 5.78063 9.40589C5.49201 9.40589 5.25051 9.6356 5.25051 9.94778C5.25051 10.095 5.30942 10.2541 5.40955 10.3778L7.68315 13.1344C7.86574 13.3582 8.04245 13.4465 8.26038 13.4465Z" fill="#0FA171"/>
</g>
<defs>
<clipPath id="clip0_667_200">
<rect width="15.338" height="15.338" fill="white" transform="translate(1.53369 1.92542)"/>
</clipPath>
</defs>
</svg>
